<svg width="220" height="52" viewBox="0 0 220 52" xmlns="http://www.w3.org/2000/svg">
  <rect width="220" height="52" rx="0" fill="none"/>
  <!-- icon mark -->
  <rect x="0" y="0" width="52" height="52" rx="14" fill="#1A1816"/>
  <path d="M14.6 39 A13.5 13.5 0 1 1 37.4 39" fill="none" stroke="#E8A838" stroke-width="3.1" stroke-linecap="round"/>
  <path d="M26 31 C22 26 14 17.7 8.3 11.4 C11.4 14.6 18.7 23.9 26 31 Z" fill="#F7F5F0"/>
  <path d="M26 31 C30 26 38 17.7 43.7 11.4 C40.6 14.6 33.3 23.9 26 31 Z" fill="#F7F5F0"/>
  <circle cx="26" cy="31" r="2.6" fill="#5C8B6E"/>
  <path d="M26 14.6 C22.8 11.4 18.7 9.3 14.6 8.8" fill="none" stroke="#5C8B6E" stroke-width="1.3" stroke-linecap="round"/>
  <path d="M26 14.6 C29.2 11.4 33.3 9.3 37.4 8.8" fill="none" stroke="#5C8B6E" stroke-width="1.3" stroke-linecap="round"/>
  <!-- wordmark -->
  <text font-family="Lora, Georgia, serif" font-size="28" font-weight="400" fill="#1A1816" x="66" y="36" letter-spacing="-0.5">Lexis</text>
</svg>
